<svg xmlns="http://www.w3.org/2000/svg" width="18" height="17" viewBox="0 0 18 17"><path d="M12.89 10.99a3.51 3.51 0 0 0 3.31-2.83l.8-4.67a.41.41 0 0 0-.09-.35.4.4 0 0 0-.31-.15H3L2.54.35A.42.42 0 0 0 2.13 0H0v1h1.59c.22.03 1.6 9 1.69 9.13.76 2 1.3 2.9 2.72 2.87h10v-1H6c-.9 0-1.29-.43-1.5-1.01zM16 4l-.61 4.01A2.44 2.44 0 0 1 13 10H4.24L3.18 4zm-2.49 13a1.5 1.5 0 0 0 0-3 1.5 1.5 0 1 0 0 3zm-.01-2c.28 0 .5.23.5.5a.5.5 0 0 1-.5.5.5.5 0 0 1-.5-.5c0-.27.23-.5.5-.5zm-6.99 2a1.5 1.5 0 0 0 0-3 1.5 1.5 0 1 0 0 3zm-.01-2c.28 0 .5.23.5.5a.5.5 0 0 1-.5.5.5.5 0 0 1-.5-.5c0-.27.23-.5.5-.5z"/></svg>