<svg xmlns="http://www.w3.org/2000/svg" width="37" height="39" viewBox="0 0 37 39"><path fill="#e41a1b" d="M3.14 14.95h.88l-.01.14v18.83h-.6c-.6 0-1.37 0-1.37.6s.48.41 1.08.41h30.43c.6 0 1.08.19 1.08-.41s-.48-.6-1.08-.6h-.6V15.09l-.01-.14h.88c-.28-.07-.15-.26.1-1.04.26-.77-.73-.98-1.39-1.47L19.51 1.17a1.07 1.07 0 0 0-1.29 0L3.73 12.67c-.66.49-.93.47-.67 1.24.25.78.09 1.04.08 1.04zm13.87 18.97V15.09l-.01-.14h3l-.01.14v18.83zm-5 0H9V15.09l-.01-.14h3.03l-.01.14zm-7.06 0v-18.9h3.04v18.9zm8.04 0v-18.9H16v18.9zm8.01 0v-18.9h3.01v18.9zm7.98 0v-18.9h3v18.9zM28 15.09v18.83h-2.98V15.09l-.01-.14h3.01l-.02.14zM18.87 1.83l14.1 12.13H3.7zm16.27 35.11H1.08c-.59 0-1.08-.05-1.08.55 0 .6.49.55 1.08.55h34.06c.6 0 1.09.05 1.09-.55 0-.6-.49-.55-1.09-.55z"/></svg>