<svg xmlns="http://www.w3.org/2000/svg" width="13" height="13" viewBox="0 0 13 13"><path fill="red" d="M6.5 13A6.51 6.51 0 0 1 0 6.5C0 2.92 2.92 0 6.5 0S13 2.92 13 6.5 10.08 13 6.5 13zM6.5.65c-1.06 0-2.06.28-2.92.78.48.12.76.31.86.58.14.37-.17.72-.61 1.2-.38.42-.89.98-.86 1.4 0 .08.03.22.21.38.63.54 1.7.75 2.48.89l.14.03a.64.64 0 0 1-.06-.18c-.12-.67.89-1.24 2.06-1.89.57-.32 1.16-.65 1.39-.89.5-.54.56-.84.4-1.42A5.82 5.82 0 0 0 6.5.65zM.65 6.5a5.85 5.85 0 1 0 9.68-4.43c-.02.43-.2.84-.67 1.33-.3.31-.9.65-1.54 1.01-.6.33-1.7.95-1.74 1.22.01 0 .15.19 1.11.34.49.08 2.91.53 3.31 1.71.47 1.4-.33 1.78-.96 2.08-.35.17-.71.34-.92.67-.39.59-.71.96-1.06.96l-.1-.01c-.4-.09-.47-.55-.57-1.13-.08-.53-.2-1.26-.56-1.41-.6-.24-.95-.54-1.05-.91-.13-.49.19-.94.47-1.3a5.63 5.63 0 0 0-.51-.11c-.85-.16-2.03-.38-2.78-1.04a1.17 1.17 0 0 1-.44-.83c-.04-.69.55-1.35 1.03-1.87.17-.19.39-.44.46-.57-.08-.07-.35-.18-1-.25A5.84 5.84 0 0 0 .65 6.5zm6.2.01c0 .09-.03.18-.09.26l-.15.2c-.21.28-.46.59-.4.79.04.16.28.33.66.48.7.28.85 1.18.97 1.9l.09.51c.09-.08.23-.25.44-.58.32-.48.78-.7 1.19-.89.62-.3.91-.44.62-1.3-.16-.49-1.36-1.04-2.79-1.26l-.54-.11z"/></svg>