<svg xmlns="http://www.w3.org/2000/svg" width="19" height="17" viewBox="0 0 19 17"><path fill="#f60304" d="M13.89 10.99a3.5 3.5 0 0 0 3.3-2.83L18 3.49a.45.45 0 0 0-.08-.35.43.43 0 0 0-.32-.15H4L3.56.35A.43.43 0 0 0 3.13 0H1v1h1.6c.2.03 1.6 9 1.68 9.13.76 2 1.3 2.9 2.72 2.87h10v-1H7c-.9 0-1.29-.43-1.5-1.01zM17 4l-.62 4.01A2.42 2.42 0 0 1 14 10H5.24L4.19 4zm-2.5 13a1.5 1.5 0 1 0 0-3 1.5 1.5 0 0 0 0 3zm0-2c.28 0 .5.23.5.5a.5.5 0 0 1-.5.5.5.5 0 0 1-.5-.5c0-.27.23-.5.5-.5zm-7 2a1.5 1.5 0 1 0 0-3 1.5 1.5 0 0 0 0 3zm0-2c.28 0 .5.23.5.5a.5.5 0 0 1-.5.5.5.5 0 0 1-.5-.5c0-.27.23-.5.5-.5z"/></svg>