<svg xmlns="http://www.w3.org/2000/svg" width="17" height="14" viewBox="0 0 17 14"><path fill="#f60304" d="M14.32 5.25h-.9A5.91 5.91 0 0 0 9 3l-.05-1.25c.37-.16.67-.25.67-.66C9.62.47 9.14 0 8.5 0c-.64 0-1.12.47-1.12 1.09 0 .36.41.5.67.66L8 3c-2.03.21-4.26 1-4.42 3.12a3.33 3.33 0 0 1-.89-.87C2.48 4.1 1.43 4.37.9 4.37H.88c-.16-.02-1.1-.07-.82.45-.01.51.94.12.94.18 0 3.16.72 4 1.69 4.62C3.85 12.9 6.04 14 8.5 14a6 6 0 0 0 5.4-3.37h.53c1.45 0 2.57-1.45 2.57-2.7v-.77c-.05-1.35-1.19-1.91-2.68-1.91zM.88 4.37H.9c.1-.1-.08-.02-.02 0zm1.81 3.5v.88c-.1-.1-1.07-.98-.9-3.5.05.26.31 1.44.9 1.75-.03 1.04 0 .36 0 .87zm0 .88c.01 0 .01 0 0 0zm-.9-4.38c.06.1.04.28.01.48l-.01-.48zm.01.48zm6.87-.82c1.29.03 2.54.16 3.33.97H5c.67-.82 1.35-1.03 3.67-.97zm-.62 9.09c-2.67 0-4.46-2.19-4.49-4.73C3.54 6.53 4.26 6.1 5 6h7c.8.08 1.42.99 1.42 1.87.17 3.54-2.69 5.25-5.37 5.25zm8.06-5.25c0 .78-1.25 2.13-2.11 2.13V9c-.1.39.07-1.81 0-3l.32.12c.69 0 1.68.05 1.68.88z"/></svg>