<svg xmlns="http://www.w3.org/2000/svg" width="17" height="19" viewBox="0 0 17 19"><path fill="#1b1b1b" d="M1.15 15.53l.02.02 3.05 3.24c.25.25.64.25.88 0a.67.67 0 0 0 0-.92l-2.63-2.8 1.6-1.7L6.7 16.2a.6.6 0 0 0 .88 0 .66.66 0 0 0 0-.91l-2.65-2.83 1.6-1.7a.68.68 0 0 0 .18-.49c.99.9 2.27 1.44 3.68 1.44 3.1 0 5.6-2.62 5.6-5.85C16 2.62 13.5 0 10.4 0 7.3 0 4.8 2.62 4.8 5.85c0 1.45.5 2.77 1.34 3.8a.61.61 0 0 0-.48.18l-4.5 4.78a.67.67 0 0 0 0 .92zm13.6-9.69a4.46 4.46 0 0 1-4.35 4.55 4.46 4.46 0 0 1-4.36-4.55A4.46 4.46 0 0 1 10.4 1.3c2.4 0 4.36 2.03 4.36 4.54z"/></svg>