<svg xmlns="http://www.w3.org/2000/svg" width="19" height="18" viewBox="0 0 19 18"><path d="M18.19 13.1L18 13l.44-.33c.26 0 .47-.21.47-.48L19 11c0-.84-1-1-1-1V9c0-1.18-1-1.18-1 0v1s-1 .17-1 1v1c0 .26.44.95 1.04.67L17 13s.15 1 1 1c.22 0 0 .8 0 1 0 .2-.28.02-.5.02-.15 0-.5.19-.5-.02 0-.27-.15-.71-.45-.71-.3 0-.55.22-.55.49 0 .7.63 1.22 1.5 1.22.83 0 1.5-.6 1.5-1.34 0-.56-.34-1.37-.81-1.56zM18 12h-1v-1h1zm-.44-5.91L7 1c0-.26-.74-1-1-1H5c-.26 0-1 .74-1 1v1L1.14 6.21a.49.49 0 0 0 .33.82L4 7v8l-1.78 2.28a.49.49 0 0 0 0 .48c.08.15.23.24.4.24h7.12c.2 0 .37-.12.44-.3a.49.49 0 0 0-.12-.53L7 15V7l10.42.03c.23 0 .43-.18.46-.41a.48.48 0 0 0-.32-.53zM4 6H3l1-2zm2 11H5V7h1zM6 6H5V3h1zm0-4H5V1h1zm1 14l1 1H7zM7 3l2 1-2 2zm1 3l2-2 2 2zm5 0l-1-2 3 2z"/></svg>