<svg xmlns="http://www.w3.org/2000/svg" width="47" height="50" viewBox="0 0 47 50"><defs><filter id="a" width="200%" height="200%" x="-50%" y="-50%"><feMorphology in="SourceGraphic" operator="dilate" result="SvgjsFeMorphology1070Out"/><feOffset dy="1" in="SvgjsFeMorphology1070Out" result="SvgjsFeOffset1071Out"/><feGaussianBlur in="SvgjsFeOffset1071Out" result="SvgjsFeGaussianBlur1072Out" stdDeviation="1"/><feComposite in="SvgjsFeGaussianBlur1072Out" in2="SourceAlpha" operator="out" result="SvgjsFeComposite1073Out"/></filter></defs><path fill="#619cc2" d="M23.5 0a23.5 23.5 0 0 1 2.9 46.82L23.5 50l-2.91-3.18A23.5 23.5 0 0 1 23.5 0z"/><path fill="#4782a8" fill-opacity=".75" d="M1585.5 1061.01a19.5 19.5 0 1 1 0 39 19.5 19.5 0 0 1 0-39z" filter="url(#a)" transform="translate(-1562 -1057)"/><path fill="#fff" d="M23.5 4.01a19.5 19.5 0 1 1 0 39 19.5 19.5 0 0 1 0-39z"/></svg>