<svg xmlns="http://www.w3.org/2000/svg" width="51" height="47" viewBox="0 0 51 47"><defs><filter id="a" width="200%" height="200%" x="-50%" y="-50%"><feMorphology in="SourceGraphic" operator="dilate" result="SvgjsFeMorphology1080Out"/><feOffset dy="1" in="SvgjsFeMorphology1080Out" result="SvgjsFeOffset1081Out"/><feGaussianBlur in="SvgjsFeOffset1081Out" result="SvgjsFeGaussianBlur1082Out" stdDeviation="1"/><feComposite in="SvgjsFeGaussianBlur1082Out" in2="SourceAlpha" operator="out" result="SvgjsFeComposite1083Out"/></filter></defs><path fill="#96a6bb" d="M50 23.5a23.5 23.5 0 0 1-46.82 2.9L0 23.49l3.18-2.9A23.5 23.5 0 0 1 50 23.5z"/><path fill="#7990ae" fill-opacity=".75" d="M395 1044.5a19.5 19.5 0 1 1-39 0 19.5 19.5 0 0 1 39 0z" filter="url(#a)" transform="translate(-349 -1021)"/><path fill="#fff" d="M46 23.5a19.5 19.5 0 1 1-39 0 19.5 19.5 0 0 1 39 0z"/></svg>