<svg xmlns="http://www.w3.org/2000/svg" width="47" height="50" viewBox="0 0 47 50"><defs><filter id="a" width="200%" height="200%" x="-50%" y="-50%"><feMorphology in="SourceGraphic" operator="dilate" result="SvgjsFeMorphology1057Out"/><feOffset dy="1" in="SvgjsFeMorphology1057Out" result="SvgjsFeOffset1058Out"/><feGaussianBlur in="SvgjsFeOffset1058Out" result="SvgjsFeGaussianBlur1059Out" stdDeviation="1"/><feComposite in="SvgjsFeGaussianBlur1059Out" in2="SourceAlpha" operator="out" result="SvgjsFeComposite1060Out"/></filter></defs><path fill="#96a6bb" d="M23.5 0a23.5 23.5 0 0 1 2.9 46.82L23.5 50l-2.91-3.18A23.5 23.5 0 0 1 23.5 0z"/><path fill="#7990ae" fill-opacity=".75" d="M1212.5 3505.01a19.5 19.5 0 1 1 0 39 19.5 19.5 0 0 1 0-39z" filter="url(#a)" transform="translate(-1189 -3501)"/><path fill="#fff" d="M23.5 4.01a19.5 19.5 0 1 1 0 39 19.5 19.5 0 0 1 0-39z"/></svg>