<svg xmlns="http://www.w3.org/2000/svg" width="47" height="50" viewBox="0 0 47 50"><defs><filter id="a" width="200%" height="200%" x="-50%" y="-50%"><feMorphology in="SourceGraphic" operator="dilate" result="SvgjsFeMorphology1067Out"/><feOffset dy="1" in="SvgjsFeMorphology1067Out" result="SvgjsFeOffset1068Out"/><feGaussianBlur in="SvgjsFeOffset1068Out" result="SvgjsFeGaussianBlur1069Out" stdDeviation="1"/><feComposite in="SvgjsFeGaussianBlur1069Out" in2="SourceAlpha" operator="out" result="SvgjsFeComposite1070Out"/></filter></defs><path fill="#f60304" d="M23.5 0a23.5 23.5 0 0 1 2.9 46.82L23.5 50l-2.91-3.18A23.5 23.5 0 0 1 23.5 0z"/><path fill="#7990ae" fill-opacity=".75" d="M1652.5 3320.01a19.5 19.5 0 1 1 0 39 19.5 19.5 0 0 1 0-39z" filter="url(#a)" transform="translate(-1629 -3316)"/><path fill="#fff" d="M23.5 4.01a19.5 19.5 0 1 1 0 39 19.5 19.5 0 0 1 0-39z"/><path d="M32 19h-7v-5H15v18h17zm-8 12h-8V15h8zm1-11h6v11h-6v-2h3.01v-1.01H25v-2h3.01v-1H25V23h3.01v-1.01H25zm-6.01 5.99V28H21v-2.01zm0-4V24H21v-2.01zm0-4V20H21v-2.01z"/></svg>