<svg xmlns="http://www.w3.org/2000/svg" width="14" height="12" viewBox="0 0 14 12"><path fill="red" d="M1.36 12a.37.37 0 0 1-.26-.1.4.4 0 0 1-.1-.3l.36-3.1a.36.36 0 0 1 .11-.22L9.05.68a2.3 2.3 0 0 1 3.27 0c.91.9.91 2.38 0 3.28l-7.58 7.6a.33.33 0 0 1-.21.11L1.4 12h-.04zm7.07-9.68l2.25 2.26 1.13-1.13c.63-.62.63-1.64 0-2.26a1.58 1.58 0 0 0-2.25 0zM2.07 8.71l-.3 2.52 2.55-.26 5.85-5.88-2.25-2.26z"/><path fill="red" d="M1.47 8.28L9.05.68a2.3 2.3 0 0 1 3.27 0c.91.9.91 2.38 0 3.28l-7.58 7.6c-.05.06-.42-.6-.42-.6l5.85-5.87-2.25-2.26L2.07 8.7s-.66-.36-.6-.42zm6.96-5.96l2.25 2.26 1.13-1.13c.63-.62.63-1.64 0-2.26a1.58 1.58 0 0 0-2.25 0z"/></svg>