<svg xmlns="http://www.w3.org/2000/svg" width="11" height="15" viewBox="0 0 11 15"><path d="M10.66 0H1.88C.84 0 0 .83 0 1.86v11.28C0 14.16.84 15 1.88 15h8.78c.19 0 .34-.15.34-.33v-.03V.33a.34.34 0 0 0-.34-.33zM1.88 3.05C1.21 3.05 1 2.66 1 2s.34-1 1-1h6.99c-1.04.3-.97.52-.99 1-.04 1.11.73.68 1 1l-2.41.05zM8 4v2H7V4zM1 14V4h5v3h1s2-.13 2 0V4h1v10zM9 2c0-.54.5-.86 1-1v2c-.5-.15-1-.46-1-1zM6.67 8.02H3.34c-.19 0-.34.22-.34.48 0 .27.15.49.34.49h3.33c.19 0 .34-.22.34-.49 0-.26-.15-.48-.34-.48zm1.05 1.99H3.29c-.16 0-.29.23-.29.5 0 .28.13.5.29.5h4.43c.16 0 .29-.22.29-.5 0-.27-.13-.5-.29-.5z"/></svg>