<svg xmlns="http://www.w3.org/2000/svg" width="19" height="18" viewBox="0 0 19 18"><path d="M9.93 13.19c-2.84 0-4.04-2.77-4.09-2.89-.1-.25 0-.55.24-.66.23-.11.51 0 .61.25.04.09 1.01 2.3 3.24 2.3h.04c2.38-.03 3.33-2.27 3.34-2.3.11-.25.38-.37.62-.25.23.11.34.41.23.66-.04.12-1.21 2.85-4.17 2.89h-.06zm.52-11.99C4.98 1.3 2.27 5.3 2.2 9.6c0 3.56 3.65 7.2 7.2 7.2 3.57-.04 8.48-3.06 8.4-7.2.09-3.83-2.02-8.16-6.8-8.39a21.51 21.51 0 0 0-.55 0zM10 0a9 9 0 1 1 0 18 9 9 0 0 1 0-18zm3 5.99c.66 0 1.2.54 1.2 1.21a1.2 1.2 0 0 1-1.2 1.21A1.2 1.2 0 0 1 11.8 7.2c0-.67.53-1.21 1.19-1.21zm-6 0c.66 0 1.2.54 1.2 1.21a1.2 1.2 0 0 1-1.2 1.21A1.2 1.2 0 0 1 5.8 7.2c0-.67.53-1.21 1.19-1.21z"/></svg>