<svg xmlns="http://www.w3.org/2000/svg" width="33" height="34" viewBox="0 0 33 34"><path fill="#e41a1b" d="M20.72 32.99c-4.1 0-6.2-1.31-7.59-1.71-.66-.18-1.13-.32-1.56-.32H5.95v2.53a.5.5 0 0 1-.5.51H.5a.5.5 0 0 1-.5-.51v-17c0-.27.22-.5.5-.5h4.95c.28 0 .5.23.5.5v1.87a6.8 6.8 0 0 0 5.01-3.21 92.95 92.95 0 0 1 5.15-7.38 19.32 19.32 0 0 0 3.22-6.17l.07-.35C19.52.64 19.64 0 20.66 0c1.99 0 3.06 2.31 3.06 4.49 0 1.34-.5 3.15-1.53 5.52-.41.93-.34 1.57-.17 1.84.09.14.22.2.39.2h7.92c.96.11 2.67.87 2.67 2.95 0 1.38-.49 2.15-.96 2.56.46.43.96 1.16.96 2.37 0 1.4-.92 2.28-1.6 2.74.35.41.69 1.09.69 2.22 0 1.6-1.36 2.42-2.22 2.77.34.63.41 1.36.24 2.37-.3 1.74-3.1 2.96-9.39 2.96zM4.95 30.7V18.88a.5.5 0 0 1 .12-.32V17H.99v15.99h4.08v-2.06c-.08-.04-.12-.1-.12-.23zm6.62-.74c.57 0 1.12.16 1.82.36 1.35.37 3.37 1.66 7.33 1.66 7.07 0 8.3-1.5 8.4-2.11.2-1.18-.01-1.68-.42-2.12-.12-.13-.17-.32-.12-.49a.5.5 0 0 1 .37-.34c.02-.01 2.14-.53 2.14-2.03 0-1.49-.73-1.8-.77-1.81a.5.5 0 0 1-.32-.47c0-.2.11-.39.3-.47.02-.01 1.7-.72 1.7-2.21 0-1.5-1.06-1.91-1.07-1.92a.5.5 0 0 1-.32-.49.5.5 0 0 1 .37-.46c.04-.01 1.02-.32 1.02-2.06 0-1.72-1.66-1.94-1.73-1.95h-7.86a1.4 1.4 0 0 1-1.22-.65c-.43-.66-.4-1.68.08-2.79.98-2.25 1.45-3.92 1.45-5.12 0-1.45-.64-3.48-2.06-3.48-.15 0-.2.02-.2.02l-.08.41-.08.38c-.21.95-1.35 3.91-3.4 6.57a89.43 89.43 0 0 0-5.1 7.31 7.89 7.89 0 0 1-5.85 3.67v10.59z"/></svg>