<svg xmlns="http://www.w3.org/2000/svg" width="24" height="30" viewBox="0 0 24 30"><path d="M18.61 11H6.37a.5.5 0 0 0-.49.5c0 .28.22.5.5.5H18.6a.5.5 0 0 0 .5-.5.5.5 0 0 0-.5-.5zM6.37 8h4.9a.5.5 0 0 0 .49-.5.5.5 0 0 0-.5-.5H6.38a.5.5 0 0 0-.49.5c0 .28.22.5.5.5zm12.24 7H6.37a.5.5 0 0 0-.49.5c0 .28.22.5.5.5H18.6a.5.5 0 0 0 .5-.5.5.5 0 0 0-.5-.5zm0 4H6.37a.5.5 0 0 0-.49.5c0 .28.22.5.5.5H18.6a.5.5 0 0 0 .5-.5.5.5 0 0 0-.5-.5zm0 4H6.37a.5.5 0 0 0-.49.5c0 .28.22.5.5.5H18.6a.5.5 0 0 0 .5-.5.5.5 0 0 0-.5-.5zM16.86 0H.99v30H24V7.29zm.12 1.71L22.33 7h-5.35zM1.96 29V1H16v7h7.02v21z"/></svg>