<svg xmlns="http://www.w3.org/2000/svg" width="15" height="18" viewBox="0 0 15 18"><path fill="#f60304" d="M9 2H8V1h1c1.27 0 1.18-1 0-1H6C4.64 0 4.76 1 6 1h1v1H6C2.83 2 0 4.41 0 7.49v5.42a3.22 3.22 0 0 0 3.26 3.17h1.2c-.72.45-1.38.84-2 1.18a.4.4 0 0 0-.15.54c.08.13.22.2.36.2.06 0 .13-.02.2-.05.92-.51 1.99-1.2 3.13-1.95h3c1.14.75 2.21 1.44 3.13 1.95.06.03.13.05.2.05a.4.4 0 0 0 .35-.2.4.4 0 0 0-.15-.54 39.9 39.9 0 0 1-1.99-1.18h1.2c1.8 0 3.26-1.42 3.26-3.17V7.49C15 4.41 12.17 2 9 2zm5 11c0 1.3-.96 1.93-2.3 2.01C11.33 15.04 3 15 3 15c-1.35 0-2-.69-2-2V7c0-2.65 2.28-4 5-4h3c2.72 0 5 2.35 5 5zm-3.76-8H4.8C3.9 5 3 6.02 3 7v3c0 .22.7 1 .9 1h7.22c.2 0 .88-.78.88-1V7c0-.98-.88-2-1.76-2zm.76 5H3.9V7c0-.54.4-1 .9-1h5.44c.5 0 .88.46.88 1zm-8.02 3.01a1 1 0 0 0 1 1 1 1 0 1 0 0-2 1 1 0 0 0-1 1zm7 0a1 1 0 0 0 1 1 1 1 0 1 0 0-2 1 1 0 0 0-1 1z"/></svg>