<svg xmlns="http://www.w3.org/2000/svg" width="21" height="14" viewBox="0 0 21 14"><path fill="#f60304" d="M20 9V2c0-1.14-1.41-2-2.57-2H3.74C1.94 0 0 1.22 0 3v7.07c0 .62.36.93 1 .93h2c.17 1.02.72 2 1.8 2 1.8 0 2.02-.98 2.2-2h6c.18 1.02.43 2.02 2.11 2.02 1.16 0 2.02-1.08 1.89-2.02h2c1.83 0 .71-2.21 1-2zm-1-4h-1V3h1zm-1 0c0 .05-.05 0 0 0zm0-2c-.05 0 0-.05 0 0zM4.89 9c-1.27.02-1.84.68-1.89 1H1c0-.23-.24-1 0-1V3c0-1.38 1.6-2 3-2h13c.63 0 1.84.43 2 1h-1c-.45 0-1.02.08-1.02.52v2.77c0 .45.37.81.82.81L19 6v3c.23 0 0 .77 0 1h-2c-.43-.79-1.44-.93-2-1-1.08 0-1.92.79-2 1H7c-.81-1.08-1.6-1-2-1h-.11H5c-.32 0-1.72-.13-2 0zM1 10c0 .23-.24 0 0 0zm4 2a1 1 0 0 1 0-2 1 1 0 0 1 0 2zm10 0a1 1 0 0 1 0-2 1 1 0 0 1 0 2zm4.27-1.93c0 .18-.02.03-.15-.04zM19 10c.05 0 .09.01.12.03zm-3-4.73V2.73c0-.4-.38-.74-.84-.74H4.78C3.8 1.99 3 2.71 3 3.58v1.69c0 .4.38.74.83.74h11.33c.46 0 .83-.34.83-.74zM15 3v2H4V3zM4 3c-.58 0 .94-.07 0 0zm0 2c0 .04-.05 0 0 0z"/></svg>