<svg xmlns="http://www.w3.org/2000/svg" width="16" height="15" viewBox="0 0 16 15"><path fill="#f60304" d="M8.44 10.99c-2.37 0-3.36-2.3-3.4-2.4a.44.44 0 0 1 .19-.56c.2-.09.42 0 .51.21.04.08.84 1.92 2.7 1.92h.04c1.98-.03 2.77-1.9 2.78-1.92.09-.21.32-.3.51-.21.2.1.29.34.2.56-.04.09-1.01 2.37-3.48 2.4h-.05zM8.88 1C4.32 1.08 2.06 4.41 2 8c0 2.97 3.04 6 6 6 2.97-.03 7.07-2.55 7-6 .07-3.2-1.7-6.81-5.69-7a19.63 19.63 0 0 0-.43 0zM8.5 0a7.5 7.5 0 1 1 0 15 7.5 7.5 0 0 1 0-15zM11 4.99A1 1 0 0 1 12 6a1 1 0 0 1-1 1.01A1 1 0 0 1 10 6a1 1 0 0 1 1-1.01zm-5 0A1 1 0 0 1 7 6a1 1 0 0 1-1 1.01A1 1 0 0 1 5 6a1 1 0 0 1 1-1.01z"/></svg>