<svg xmlns="http://www.w3.org/2000/svg" width="24" height="13" viewBox="0 0 24 13" preserveAspectRatio="none"><defs><clipPath id="a"><path fill="#fff" d="M412 1525v-13h24v13zm19.87-12h-17.14c-.96 0-1.73.76-1.73 1.69v7.62c0 .93.77 1.69 1.73 1.69h17.14s3.13-4.3 3.13-5.08c0-.77-3.13-5.92-3.13-5.92z"/></clipPath></defs><path fill="#fff" d="M19.87 1H2.73C1.77 1 1 1.76 1 2.69v7.62c0 .93.77 1.69 1.73 1.69h17.14S23 7.7 23 6.92C23 6.15 19.87 1 19.87 1z"/><path fill="none" stroke="#f60304" stroke-linecap="round" stroke-linejoin="round" stroke-miterlimit="50" stroke-width="2" d="M431.87 1513h-17.14c-.96 0-1.73.76-1.73 1.69v7.62c0 .93.77 1.69 1.73 1.69h17.14s3.13-4.3 3.13-5.08c0-.77-3.13-5.92-3.13-5.92z" clip-path="url(&quot;#a&quot;)" transform="translate(-412 -1512)"/></svg>
