<svg xmlns="http://www.w3.org/2000/svg" width="47" height="50" viewBox="0 0 47 50"><defs><filter id="a" width="200%" height="200%" x="-50%" y="-50%"><feMorphology in="SourceGraphic" operator="dilate" result="SvgjsFeMorphology1099Out"/><feOffset dy="1" in="SvgjsFeMorphology1099Out" result="SvgjsFeOffset1100Out"/><feGaussianBlur in="SvgjsFeOffset1100Out" result="SvgjsFeGaussianBlur1101Out" stdDeviation="1"/><feComposite in="SvgjsFeGaussianBlur1101Out" in2="SourceAlpha" operator="out" result="SvgjsFeComposite1102Out"/></filter></defs><path fill="#886ed2" d="M23.5 0a23.5 23.5 0 0 1 2.9 46.82L23.5 50l-2.92-3.18A23.5 23.5 0 0 1 23.5 0z"/><path fill="#6047a5" fill-opacity=".75" d="M710.5 1241.01a19.5 19.5 0 1 1 0 39 19.5 19.5 0 0 1 0-39z" filter="url(#a)" transform="translate(-687 -1237)"/><path fill="#fff" d="M23.5 4.01a19.5 19.5 0 1 1 0 39 19.5 19.5 0 0 1 0-39z"/></svg>