<svg xmlns="http://www.w3.org/2000/svg" width="47" height="51" viewBox="0 0 48 51"><defs><filter id="a" width="200%" height="200%" x="-50%" y="-50%"><feMorphology in="SourceGraphic" operator="dilate" result="SvgjsFeMorphology1040Out"/><feOffset dy="1" in="SvgjsFeMorphology1040Out" result="SvgjsFeOffset1041Out"/><feGaussianBlur in="SvgjsFeOffset1041Out" result="SvgjsFeGaussianBlur1042Out" stdDeviation="1"/><feComposite in="SvgjsFeGaussianBlur1042Out" in2="SourceAlpha" operator="out" result="SvgjsFeComposite1043Out"/></filter></defs><path fill="#daa549" d="M24.5 1a23.5 23.5 0 0 1 2.9 46.82L24.5 51l-2.92-3.18A23.5 23.5 0 0 1 24.5 1z"/><path fill="#896425" fill-opacity=".75" d="M609.5 886a19.5 19.5 0 1 1 .01 39 19.5 19.5 0 0 1-.01-39z" filter="url(#a)" transform="translate(-585 -881)"/><path fill="#fff" d="M24.5 5a19.5 19.5 0 1 1 .01 39 19.5 19.5 0 0 1-.01-39z"/></svg>
