<svg xmlns="http://www.w3.org/2000/svg" width="47" height="50" viewBox="0 0 47 50"><defs><filter id="a" width="200%" height="200%" x="-50%" y="-50%"><feMorphology in="SourceGraphic" operator="dilate" result="SvgjsFeMorphology1078Out"/><feOffset dy="1" in="SvgjsFeMorphology1078Out" result="SvgjsFeOffset1079Out"/><feGaussianBlur in="SvgjsFeOffset1079Out" result="SvgjsFeGaussianBlur1080Out" stdDeviation="1"/><feComposite in="SvgjsFeGaussianBlur1080Out" in2="SourceAlpha" operator="out" result="SvgjsFeComposite1081Out"/></filter></defs><path fill="#96a6bb" d="M23.5 0a23.5 23.5 0 0 1 2.9 46.82L23.5 50l-2.91-3.18A23.5 23.5 0 0 1 23.5 0z"/><path fill="#7990ae" fill-opacity=".75" d="M1527.5 3509.01a19.5 19.5 0 1 1 .02 38.98 19.5 19.5 0 0 1-.02-38.98z" filter="url(#a)" transform="translate(-1504 -3505)"/><path fill="#fff" d="M23.5 4.01a19.5 19.5 0 1 1 .02 38.98 19.5 19.5 0 0 1-.02-38.98z"/><path d="M33 27v-7c0-1.14-1.41-2-2.57-2H16.74C14.93 18 13 19.22 13 21v7.07c0 .62.36.93 1 .93h2c.17 1.02.72 2 1.81 2 1.8 0 2.02-.98 2.19-2h6c.17 1.02.43 2.02 2.11 2.02 1.16 0 2.02-1.08 1.89-2.02h2c1.83 0 .71-2.21 1-2zm-1-4h-1v-2h1zm-1 0c0 .05-.05 0 0 0zm0-2c-.05 0 0-.05 0 0zm-13.11 6c-1.26.02-1.83.68-1.89 1h-2c0-.23-.24-1 0-1v-6c0-1.38 1.6-2 3-2h13c.63 0 1.84.43 2 1h-1c-.45 0-1.02.08-1.02.52v2.77c0 .45.37.81.82.81L32 24v3c.23 0 0 .77 0 1h-2c-.43-.79-1.44-.93-2-1-1.08 0-1.92.79-2 1h-6c-.81-1.08-1.6-1-2-1h-.11.08c-.37 0-1.7-.13-1.97 0zM14 28c0 .23-.24 0 0 0zm4 2a1 1 0 0 1-1-1 1 1 0 0 1 1-1 1 1 0 0 1 0 2zm0-3zm10 3a1 1 0 0 1 0-2 1 1 0 0 1 1 1 1 1 0 0 1-1 1zm4.27-1.93c0 .18-.03.03-.15-.04zM32 28c.05 0 .09.01.12.03zm-3.01-4.73v-2.54c0-.4-.37-.74-.83-.74H17.78c-.98 0-1.78.71-1.78 1.59v1.69c0 .4.37.74.83.74h11.33c.46 0 .83-.34.83-.74zM28 21v2H17v-2zm-11 0c-.58 0 .94-.08 0 0zm0 2c0 .04-.05 0 0 0z"/></svg>