<svg xmlns="http://www.w3.org/2000/svg" width="27" height="35" viewBox="0 0 27 35"><path d="M13.5 20.02a5.7 5.7 0 0 1-5.71-5.66 5.69 5.69 0 0 1 5.71-5.65 5.69 5.69 0 0 1 5.71 5.65 5.7 5.7 0 0 1-5.71 5.66zm0-10.31a4.69 4.69 0 0 0-4.7 4.65 4.69 4.69 0 0 0 4.7 4.66c2.59 0 4.7-2.09 4.7-4.66a4.69 4.69 0 0 0-4.7-4.65zM13.48 35a.5.5 0 0 1-.44-.26l-4.2-7.84A13.4 13.4 0 0 1 0 14.36C0 7 6.06 1 13.5 1s13.49 6 13.49 13.36c0 5.62-3.56 10.63-8.87 12.55l-4.19 7.83a.51.51 0 0 1-.45.26zm.02-33.01A12.44 12.44 0 0 0 1.01 14.36a12.4 12.4 0 0 0 8.35 11.67.5.5 0 0 1 .28.23l3.84 7.18 3.84-7.16a.5.5 0 0 1 .28-.24 12.38 12.38 0 0 0 8.39-11.68C25.99 7.54 20.39 2 13.5 2z"/></svg>