<svg xmlns="http://www.w3.org/2000/svg" width="94" height="58" viewBox="0 0 94 58"><defs><clipPath id="a"><path fill="#fff" d="M509 3002v-35.5c0-7.46 6.5-13.5 14.5-13.5s14.5 6.04 14.5 13.5v35.5z"/></clipPath><clipPath id="b"><path fill="#fff" d="M494 3002v-33h60v33z"/></clipPath><clipPath id="c"><path fill="#fff" d="M494 2981v-1h59v1h-23v20h-1v-20h-6v20h-1v-20h-6v20h-1v-20z"/></clipPath><clipPath id="d"><path fill="#fff" d="M521 2954l3-10 3 10z"/></clipPath><clipPath id="e"><path fill="#fff" d="M523.5 2962a7.5 7.5 0 1 1 0 15 7.5 7.5 0 0 1 0-15z"/></clipPath></defs><path fill="none" stroke="#252525" stroke-miterlimit="50" stroke-width="2" d="M509 3002v-35.5c0-7.46 6.5-13.5 14.5-13.5s14.5 6.04 14.5 13.5v35.5z" clip-path="url(&quot;#a&quot;)" transform="translate(-476 -2944)"/><path fill="none" stroke="#252525" stroke-miterlimit="50" stroke-width="2" d="M494 3002v-33h60v33z" clip-path="url(&quot;#b&quot;)" transform="translate(-476 -2944)"/><path fill="none" stroke="#252525" stroke-miterlimit="50" stroke-width="2" d="M494 2981v-1h59v1h-23v20h-1v-20h-6v20h-1v-20h-6v20h-1v-20z" clip-path="url(&quot;#c&quot;)" transform="translate(-476 -2944)"/><path fill="none" stroke="#252525" stroke-miterlimit="50" stroke-width="2" d="M521 2954l3-10 3 10z" clip-path="url(&quot;#d&quot;)" transform="translate(-476 -2944)"/><path fill="#fff" d="M47.5 18a7.5 7.5 0 1 1 0 15 7.5 7.5 0 0 1 0-15z"/><path fill="none" stroke="#252525" stroke-miterlimit="50" stroke-width="2" d="M523.5 2962a7.5 7.5 0 1 1 0 15 7.5 7.5 0 0 1 0-15z" clip-path="url(&quot;#e&quot;)" transform="translate(-476 -2944)"/><path fill="#e41a1b" d="M48.84 23.03h-.06l-1.25 2.53-1.3-2.56-1.76 4.62H44V28h2.5v-.38h-.5l.5-1.44L47.53 28l.97-1.82.5 1.44h-.5V28H51v-.38h-.44z"/><path fill="#ff2727" d="M.99 58v-1H93v1z"/></svg>