<svg xmlns="http://www.w3.org/2000/svg" width="21" height="34" viewBox="0 0 21 34"><path d="M18.92 0H2.08C.94 0 0 .94 0 2.1v28.82c0 1.15.93 2.1 2.07 2.1h16.84c1.14 0 2.07-.95 2.07-2.1V2.1C20.99.94 20.06 0 18.92 0zM1.05 5.98H20v20.98H1zM2 1.05H19c.56 0 1.03.47 1.03 1.04v2.87H1.05L.99 2.1c0-.57.46-1.04 1.02-1.04zM19 31.97H2.04c-.56 0-1.05-.47-1.05-1.05v-2.89H20v2.9c0 .57-.46 1.04-1.02 1.04zm-8.49-3.64a1.6 1.6 0 0 0-1.58 1.63c0 .9.71 1.63 1.58 1.63a1.6 1.6 0 0 0 1.58-1.63c0-.9-.71-1.63-1.58-1.63zm0 2.6a.95.95 0 0 1-.94-.97c0-.53.42-.96.94-.96s.94.43.94.96-.42.97-.94.97zM8.16 4h4.68c.2 0 .35-.22.35-.5s-.16-.5-.35-.5H8.16c-.2 0-.2 1 0 1z"/></svg>