<svg xmlns="http://www.w3.org/2000/svg" width="30" height="30" viewBox="0 0 30 30"><path fill="#e41a1b" d="M28.97 13.97V7.26c0-1.57-1.67-3.28-3.23-3.28h-1.93L21.84.88A1.7 1.7 0 0 0 19.52.2L12.27 4 3.7 3.98C2.13 3.98.99 5.69.99 7.26v18.9c0 1.58 1.14 2.85 2.71 2.85h22.04c1.56 0 3.23-1.27 3.23-2.84v-6.13H30v-6.07zm-3.23-9.03c.87 0 2.16 1.15 2.26 2h-2.71l-1.11-1.96zm-5.66-3.9c.26-.16.71-.14.86.13l3.22 5.77H9.18zm5.66 26.92H3.7c-.94 0-1.71-.85-1.71-1.8V7.27c0-.94.77-2.32 1.71-2.32h7.28l-3.78 2H4.05c-.31 0-.48.22-.48.54 0 .31.17.42.48.42h23.96v6.07h-4.72C21.36 13.97 20 15.05 20 17v.24c0 1.93 1.36 2.81 3.29 2.81h4.72v6.13c0 .94-1.33 1.8-2.27 1.8zM29 18.9h-5.71c-1.31 0-2.28-.37-2.28-1.67v-.25c0-1.3.97-2.05 2.28-2.05H29zm-4.93-1.96a1 1 0 1 1-2 0 1 1 0 0 1 2 0z"/></svg>