<svg xmlns="http://www.w3.org/2000/svg" width="32" height="32" viewBox="0 0 32 32"><path d="M16.4 19.01c4.21 0 8.58-5.07 8.58-11.01 0-4.42-4.21-8-8.58-8S8 3.58 8 8C8 13.94 12.2 19 16.4 19zm0-18.1c3.1 0 6.92 3.17 7.65 6.08-1.4.32-4.1-1.19-4.86-2.44a.68.68 0 0 0-.32-.41.63.63 0 0 0-.86.28c-1 2.05-5.22 3.3-9.08 2.5.57-3.1 4.24-6 7.47-6zm-3.7 7.04a7.6 7.6 0 0 0 5.88-2.51c.9 1.02 3.26 2.51 4.59 2.51.28 0 .6-.03.88-.1l.03.39c0 5.28-4.14 9.79-7.68 9.79S8.96 13.27 8.96 8c1.05.19 2.82-.05 3.74-.05zm19.2 21.54l-1.84-4.86c-.82-2.94-2.93-4.73-5.81-5.49l-.41-.13c-.03-.03-.1-.03-.16-.07-.54-.12-1.1.04-1.52.48l-.03.04a6.97 6.97 0 0 1-5.73 2.58 7.43 7.43 0 0 1-5.73-2.52 1.62 1.62 0 0 0-1.48-.51h-.03c-.07 0-.13 0-.2.03l-.37.13c-2.91.76-4.9 2.55-5.72 5.49l-1.85 4.89c-.15.61-.03 1.22.32 1.7s.95.73 1.55.73h27.02c.6 0 1.36-.28 1.7-.76.39-.52.48-1.12.29-1.73zm-.93 1.23a.66.66 0 0 1-.5.26H2.51a.56.56 0 0 1-.47-.26c-.13-.16-.16-.38-.13-.57l1.82-5.17a7.06 7.06 0 0 1 5.2-4.96l.31-.1c.06 0 .13 0 .16-.03.13-.03.25.03.32.09a8.46 8.46 0 0 0 6.67 3.03c2.4 0 4.75-.79 6.68-3.03a.43.43 0 0 1 .31-.12c.04 0 .07.03.13.03l.41.13a7.24 7.24 0 0 1 5.24 4.96l1.93 5.17a.84.84 0 0 1-.13.57z"/></svg>