<svg xmlns="http://www.w3.org/2000/svg" width="33" height="17" viewBox="0 0 33 17"><path d="M3.52 11.99H3.5A2.5 2.5 0 1 0 3.48 17h.02a2.5 2.5 0 0 0 1.9-4.13l.24.24 4-3.93c.46.5 1.11.81 1.84.82h.02a2.5 2.5 0 0 0 2.03-1.05l4.5 1.93A2.5 2.5 0 0 0 20.48 13h.02a2.5 2.5 0 0 0 2.4-3.22l5.15-4.2-.27-.26c.45.42 1.04.68 1.7.68h.02a2.5 2.5 0 0 0 .02-5.01h-.02a2.51 2.51 0 0 0-1.8 4.25l-.36-.36-5.04 3.89a2.51 2.51 0 0 0-1.78-.78h-.02c-1.16 0-2.14.8-2.42 1.88L13.93 8.1a2.52 2.52 0 0 0-2.4-3.1l-.03-.01a2.51 2.51 0 0 0-2.23 3.63l-.24-.23-4.1 4.02.17.17a2.5 2.5 0 0 0-1.58-.59zm15.49-1.72l-.07-.03c.13-.75.78-1.32 1.56-1.32h.01c.87.01 1.57.72 1.57 1.59a1.59 1.59 0 0 1-1.58 1.56h-.01a1.58 1.58 0 0 1-1.56-1.72zM3.5 16.07h-.01c-.87 0-1.57-.72-1.57-1.59.01-.86.72-1.56 1.58-1.56h.01c.87.01 1.57.72 1.57 1.59a1.59 1.59 0 0 1-1.58 1.56zm8-7h-.01c-.87 0-1.57-.72-1.57-1.59.01-.86.72-1.56 1.58-1.56h.01c.87.01 1.57.72 1.57 1.59a1.59 1.59 0 0 1-1.58 1.56zm18-4h-.01c-.87 0-1.57-.72-1.57-1.59.01-.86.72-1.56 1.58-1.56h.01c.87.01 1.57.72 1.57 1.59a1.59 1.59 0 0 1-1.58 1.56z"/></svg>